<svg xmlns="http://www.w3.org/2000/svg" xmlns:svg="http://www.w3.org/2000/svg" id="svg2" width="300" height="200.308" x="0" y="0" enable-background="new 0 0 354 250" version="1.1" viewBox="0 0 300 200.308" xml:space="preserve"><metadata id="metadata507"/><g id="Layer_3" transform="matrix(0.92307692,0,0,0.92307692,-13.846154,-14.769231)"><g id="XMLID_3_"><g id="g6"><rect id="rect8" width="325" height="72.99" x="15" y="160.01" style="fill:#006e3b"/><rect id="rect10" width="325" height="72.06" x="15" y="87.95" style="fill:#da2d1c"/><rect id="rect12" width="325" height="71.95" x="15" y="16" style="fill:#2042a1"/></g></g></g><g id="Layer_4" transform="matrix(0.92307692,0,0,0.92307692,-13.846154,-14.769231)"><g id="g17"><g id="g19"><ellipse id="ellipse21" cx="177.486" cy="127.548" d="m 230.90999,127.548 c 0,29.97525 -23.91874,54.275 -53.424,54.275 -29.50526,0 -53.424,-24.29975 -53.424,-54.275 0,-29.975259 23.91874,-54.275005 53.424,-54.275005 29.50526,0 53.424,24.299746 53.424,54.275005 z" rx="53.424" ry="54.275" style="fill:#fff"/></g><g id="g23"><polygon id="polygon25" points="165.244 52.233 174.243 51.973 177.306 42.845 180.286 52.013 189.271 52.366 182.732 57.675 185.223 66.639 177.201 61.369 169.137 66.557 171.718 57.609" style="fill:#fff"/></g><g id="g27"><polygon id="polygon29" points="212.244 66.233 221.242 65.973 224.306 56.845 227.286 66.013 236.271 66.366 229.732 71.675 232.223 80.639 224.201 75.369 216.137 80.557 218.719 71.609" style="fill:#fff"/></g><g id="g31"><polygon id="polygon33" points="236.244 110.233 245.242 109.973 248.306 100.845 251.286 110.013 260.271 110.366 253.732 115.675 256.223 124.639 248.201 119.369 240.137 124.557 242.719 115.609" style="fill:#fff"/></g><g id="g35"><polygon id="polygon37" points="230.244 158.233 239.242 157.973 242.306 148.845 245.286 158.014 254.271 158.365 247.732 163.676 250.223 172.639 242.201 167.369 234.137 172.557 236.719 163.609" style="fill:#fff"/></g><g id="g39"><polygon id="polygon41" points="193.244 191.233 202.242 190.973 205.306 181.845 208.286 191.014 217.271 191.365 210.732 196.676 213.223 205.639 205.201 200.369 197.137 205.557 199.719 196.609" style="fill:#fff"/></g><g id="g43"><polygon id="polygon45" points="138.244 191.233 147.242 190.973 150.306 181.845 153.286 191.014 162.271 191.365 155.732 196.676 158.223 205.639 150.201 200.369 142.137 205.557 144.719 196.609" style="fill:#fff"/></g><g id="g47"><polygon id="polygon49" points="100.244 158.233 109.242 157.973 112.306 148.845 115.286 158.014 124.271 158.365 117.732 163.676 120.223 172.639 112.201 167.369 104.137 172.557 106.719 163.609" style="fill:#fff"/></g><g id="g51"><polygon id="polygon53" points="94.244 110.233 103.242 109.973 106.306 100.845 109.286 110.014 118.271 110.365 111.732 115.676 114.223 124.639 106.201 119.369 98.137 124.557 100.719 115.609" style="fill:#fff"/></g><g id="g55"><polygon id="polygon57" points="118.244 66.233 127.242 65.973 130.306 56.845 133.286 66.014 142.271 66.365 135.732 71.676 138.223 80.639 130.201 75.369 122.137 80.557 124.719 71.609" style="fill:#fff"/></g></g></g><g id="Layer_2" transform="matrix(0.92307692,0,0,0.92307692,-13.846154,-14.769231)"><g id="g60"><g id="g62"><g id="XMLID_1_"><g id="g65"><path id="path67" d="m 224.691,124.471 c -0.644,0 -3.563,-2.632 -3.662,-4.889 l -1.178,0.139 c 0,1.396 -0.515,2.563 -1.762,3.335 -0.039,0.495 0.337,1.079 0.109,1.593 -1.099,-0.06 -2.831,0.089 -3.771,-0.099 l -0.455,0.218 c -0.386,-0.416 -0.762,-0.802 -1.029,-1.088 -0.653,-0.713 -1.475,-1.445 -2.405,-2.108 l 1.337,-0.336 c -0.871,-4.879 19.912,-7.641 15.271,-1 0.911,0.436 1.574,1.563 2.444,2.009 -1.128,1.682 -2.751,2.851 -4.572,3.395 l -0.327,-1.169 z" style="fill:#299c3a"/><path id="path69" d="m 224.691,124.471 0.326,1.168 c -1.207,0.366 -2.504,0.455 -3.81,0.228 1.167,1.089 2.256,2.781 3.474,4.088 -1.623,0.851 -1.148,1.454 -2.831,1.365 0.455,3.107 -0.653,5.889 -1.147,8.641 -1.683,-1.544 -3.236,-3.157 -4.127,-5.156 -0.179,0.88 -0.861,1.623 -1.02,2.563 -1.534,-0.791 -3.188,-1.949 -4.395,-3.117 0.119,-0.762 2.761,-4.85 2.949,-5.611 3.028,-0.139 1.326,-2.297 -0.139,-3.87 l 0.455,-0.218 c 0.94,0.188 2.673,0.04 3.771,0.099 0.228,-0.515 -0.148,-1.099 -0.109,-1.593 1.247,-0.772 1.762,-1.94 1.762,-3.335 l 1.178,-0.139 c 0.1,2.254 3.02,4.887 3.663,4.887 z" style="fill:#299c3a"/><path id="path71" d="m 222.157,102.935 c 0.366,0.356 1.347,1.573 1.485,1.801 -0.198,0.752 -0.426,1.91 -0.822,2.593 -1.346,0.663 -0.366,0.495 -1.157,1.495 0.01,-0.109 -0.842,0.158 -0.931,0.218 0.198,0.633 0.268,1.435 0.436,2.118 -2.099,0.317 -3.78,0.317 -6.047,0.624 -0.188,-0.663 -0.505,-5.077 -0.663,-5.75 2.325,-1.189 4.414,-3.03 7.699,-3.099 z" style="fill:#299c3a"/><path id="path73" d="m 210.638,96.304 c -0.119,-0.059 -0.208,-0.109 -0.327,-0.168 -0.149,0.098 -0.04,0.158 0.327,0.168 z m 0.009,0.732 c 0,0.069 0.06,0.109 0.158,0.089 -0.059,-0.02 -0.117,-0.049 -0.158,-0.089 z m -2.157,-0.94 c -1.692,-0.802 -3.484,-2.494 -1.771,-5.384 1.633,0.98 3.127,1.831 4.275,3.266 0.524,-1.049 2.009,-1.811 2.622,-2.89 1.465,1.375 3.227,3.008 3.475,5.196 0.475,0.079 1.167,-0.148 1.603,0.049 0.347,0.257 -0.356,0.95 -0.118,1.267 0.563,0.109 1.178,-0.03 1.731,0.049 -0.208,3.404 -2.82,4.068 -5.552,3.454 -1.604,-1.722 -4.325,-2.079 -4.217,-4.177 0,-0.079 0.011,-0.158 0.021,-0.237 l -0.584,-0.06 c -0.407,-0.087 -0.941,-0.266 -1.485,-0.533 z" style="fill:#299c3a"/><path id="path75" d="m 214.398,101.114 c 0.228,0.832 0.316,1.683 0.515,2.464 -1.099,0.129 -1.692,-0.109 -2.771,-0.445 -0.02,0.376 0.148,1.307 -0.218,1.574 -0.376,-1.089 -0.95,-1.801 -1.583,-2.049 -0.089,-0.049 -0.179,-0.079 -0.277,-0.089 -0.792,-0.159 -1.633,0.396 -2.257,1.791 -0.108,-0.01 -1.554,0.129 -1.603,0.168 0.108,-2.049 0.02,-3.227 1.435,-4.563 -0.584,-0.218 -1.504,-0.336 -2.078,-0.396 -0.179,0.03 0.178,-0.92 0.158,-0.93 1.079,0.228 2.098,0.376 2.939,0.564 0.366,-1.178 0.089,-2.751 0,-2.9 0,0.148 0,0.475 0,0.99 -0.06,0 -0.109,0 -0.168,0 0,-0.059 0,-0.109 0,-0.168 0,-0.277 0,-0.544 0,-0.822 0,-0.069 0,-0.138 0,-0.208 0.544,0.267 1.078,0.445 1.484,0.534 l 0.584,0.06 c -0.01,0.079 -0.021,0.158 -0.021,0.237 -0.108,2.098 2.613,2.455 4.217,4.177 l -0.356,0.011 z" style="fill:#adadad"/><path id="path77" d="m 140.992,151.697 c 3.8,-2.554 7.66,-4.701 11.777,-6.849 0.732,-0.386 1.475,-0.762 2.227,-1.148 0.544,-0.286 1.099,-0.563 1.653,-0.841 0.455,-0.237 0.911,-0.475 1.366,-0.703 0.287,-0.148 0.574,-0.297 0.861,-0.445 2.643,-1.355 5.028,-2.979 7.294,-4.721 0.821,-0.633 1.623,-1.276 2.425,-1.93 0.099,0.069 0.208,0.129 0.316,0.188 1.455,-1.01 2.504,-1.989 3.187,-3.088 3.583,-2.96 7.205,-5.83 11.48,-7.858 0.416,-0.198 0.831,-0.376 1.257,-0.535 1.86,-0.732 3.84,-1.237 5.76,-1.762 2.87,-0.792 5.622,-1.672 7.71,-3.563 2.099,-1.89 2.475,-4.364 4.028,-6.215 0.02,-0.02 0.029,-0.04 0.05,-0.059 0.494,-0.574 1.108,-1.059 1.762,-1.524 1.365,-0.96 2.89,-1.801 3.889,-3.088 1.06,-1.385 1.772,-3.404 2.029,-4.988 0.099,0.01 0.188,0.04 0.277,0.089 l -0.03,0.079 c 1,1.148 1.148,2.643 0.763,4.275 -0.317,1.346 -1,2.791 -1.861,4.207 -0.218,-0.02 -0.267,0 -0.059,0.099 -0.277,0.02 -0.218,0.049 -0.04,0.079 -1.93,3.117 -4.661,6.086 -6.186,7.621 -0.02,0 -0.05,0.01 -0.069,0.01 -0.119,0.049 -0.119,0.06 0.01,0.049 0.02,-0.02 0.04,-0.04 0.06,-0.059 2.405,-0.347 5.314,0.9 7.61,2.553 0.931,0.663 1.752,1.396 2.405,2.108 0.268,0.287 0.644,0.673 1.029,1.088 1.465,1.573 3.167,3.731 0.139,3.87 -0.029,-0.01 -0.06,-0.01 -0.099,0 -1.069,-0.069 -2.9,-2.079 -4.414,-3.583 -0.684,-0.673 -1.297,-1.247 -1.762,-1.504 -5.563,-3.078 -9.135,-1.475 -13.678,0.653 -0.644,0.307 -1.316,0.614 -2.009,0.93 -0.229,0.099 -0.456,0.198 -0.674,0.297 -4.819,2.059 -8.828,2.643 -13.004,6.503 -3.623,3.325 -6.77,6.552 -10.719,9.104 -1.178,0.772 -2.425,1.475 -3.781,2.108 -1.475,0.683 -2.9,1.415 -4.305,2.167 -2.286,1.228 -4.513,2.524 -6.809,3.851 -0.96,0.563 -1.93,1.128 -2.93,1.692 -0.712,0.405 -1.366,0.851 -1.969,1.336 -3.662,2.86 -5.75,6.858 -9.66,9.382 l -0.079,-0.118 c -1.514,-1.534 -3.078,-2.949 -4.107,-4.603 2.298,-1.927 4.574,-3.62 6.88,-5.154 z" style="fill:#299c3a"/><path id="path79" d="m 212.835,106.706 c 0.563,-0.168 1.099,-0.406 1.623,-0.673 -0.228,0.96 -0.742,4.681 -0.713,6.077 -0.792,-0.089 -3.751,-0.802 -4.533,-0.891 0.861,-1.416 1.544,-2.86 1.861,-4.207 l 0.06,0.01 c 0.603,-0.029 1.167,-0.148 1.702,-0.316 z" style="fill:#adadad"/><path id="path81" d="m 214.013,128.638 c -0.485,0.049 -1.792,0.871 -2.851,1.633 l -0.089,-0.168 c 0.01,-0.011 0.029,-0.011 0.039,-0.021 -2.612,-2.929 -4.721,-4.73 -7.759,-5.354 1.86,-0.445 2.741,0.307 4.127,0.94 0.851,0.387 2.633,2.88 1.999,-0.494 l 0.119,-0.119 c 1.514,1.504 3.345,3.513 4.415,3.583 z" style="fill:#adadad"/><path id="path83" d="m 200.048,127.42 c -0.05,-0.02 -0.109,-0.05 -0.168,-0.06 0.059,0.03 0.108,0.069 0.168,0.1 0,-0.01 0,-0.03 0,-0.04 z m 3.306,-2.692 c 3.038,0.624 5.146,2.425 7.759,5.354 -0.01,0.01 -0.029,0.01 -0.039,0.021 -1.297,0.613 -2.158,1.811 -3.107,2.593 0,-0.03 0.01,-0.05 0.01,-0.079 -0.574,0.02 -1.139,-0.03 -1.683,-0.129 -4.859,-0.871 -8.393,-5.879 -12.619,-4.79 l -0.376,0.119 c -0.416,-0.753 -1.089,-1.802 -1.791,-2.316 l -0.03,-0.069 c 0.218,-0.099 0.445,-0.198 0.674,-0.297 0.692,-0.316 1.365,-0.624 2.009,-0.93 l 0.148,0.307 c 1.455,0.02 3.771,0.198 5.572,0.366 0.059,0.05 0.108,0.109 0.168,0.159 l -0.01,-0.525 c 1.236,-0.061 2.324,0.018 3.315,0.216 z" style="fill:#299c3a"/><path id="path85" d="m 206.045,133.744 0.248,-1.257 c 0.544,0.099 1.108,0.148 1.683,0.129 0,0.029 -0.01,0.049 -0.01,0.079 -0.277,1.989 -0.159,4.098 0.336,5.978 -0.485,0.198 -1,-0.218 -1.445,-0.129 0.377,1.277 -0.118,2.801 0.119,4.098 -2.771,-0.594 -5.889,-0.851 -7.977,-3.068 l 0.584,-0.712 c -0.139,-0.535 0.039,-1.851 0,-1.812 l 0.831,-0.831 c -0.119,-0.693 -0.04,-2.554 0.139,-3.909 l 1.346,0.118 c 0,0.03 0.01,0.05 0.01,0.079 l 0.644,-0.079 c 0.978,0.842 2.295,1.316 3.492,1.316 z" style="fill:#299c3a"/><path id="path87" d="m 200.553,132.31 c -0.179,1.355 -0.258,3.216 -0.139,3.909 l -0.831,0.831 c 0.039,-0.039 -0.139,1.276 0,1.812 l -0.584,0.712 c -0.238,0.713 -0.812,1.307 -1.099,2.079 -2.999,-2.989 -12.906,-9.857 -4.444,-13.539 -0.049,-0.09 -0.099,-0.198 -0.158,-0.297 l 0.376,-0.119 c 4.227,-1.089 7.76,3.919 12.619,4.79 l -0.248,1.257 c -1.197,0 -2.514,-0.475 -3.493,-1.316 l -0.644,0.079 c 0,-0.029 -0.01,-0.049 -0.01,-0.079 l -1.345,-0.119 z" style="fill:#299c3a"/><path id="path89" d="m 203.363,110.15 c 0.277,0.02 0.515,0.128 0.673,0.336 l 0.109,0.158 c -0.653,0.465 -1.268,0.95 -1.762,1.524 -0.021,0.02 -0.03,0.04 -0.05,0.059 l -0.109,-0.089 c -0.405,-0.01 -0.563,-0.248 -0.494,-0.663 l 0.089,-0.129 c -0.465,-0.287 -1.059,-1.059 -1.247,-1.682 h -0.158 c -0.337,1.039 -1.197,2.247 -0.831,4.077 -0.653,-4.582 -10.738,-0.277 -9.699,-8.501 1.128,0.04 2.267,-0.772 3.404,-0.722 0.168,-1.663 1.049,-3.108 1.02,-4.85 1.168,0.752 2.643,0.564 3.731,1.099 -0.268,-0.931 0,-2 -0.238,-2.949 5.761,0.089 7.858,6.967 4.098,10.53 0.455,0.96 1,1.603 1.494,1.494 l -0.03,0.308 z" style="fill:#299c3a"/><path id="path91" d="m 171.346,84.922 c 0,-0.01 0,-0.01 0,-0.01 -0.732,-0.653 -1.504,-1.069 -2.256,-1.287 v -0.01 c -0.069,-0.218 -0.148,-0.416 -0.237,-0.594 0.692,-2.088 -1.871,-9.788 9.62,-3.553 1.692,0.91 6.403,-3.059 7.917,-0.871 1.287,1.871 -0.445,4.711 -1.97,5.453 4.454,1.9 12.114,5.305 12.361,9.947 l -0.059,0.316 C 189.24,93.096 181.005,87.652 172.534,93.66 h -0.663 -0.159 c -0.01,-0.069 -0.01,-0.128 -0.02,-0.198 -0.197,-2.433 -0.435,-5.67 -0.346,-8.54 z" style="fill:#e6e631"/><path id="path93" d="m 182.718,112.753 c 6.463,-5.83 6.443,3.276 12.055,2.048 -0.336,2.811 -2.246,5.028 -4.256,6.908 l 0.079,0.297 c -1.92,0.524 -3.899,1.029 -5.76,1.762 l -0.099,-0.248 c -5.711,-0.93 -5.76,-7.393 -2.019,-10.767 z" style="fill:#299c3a"/><path id="path95" d="m 172.92,95.948 c 3.147,-0.95 7.027,0.841 8.363,4.137 0.584,1.425 0.762,2.801 0.683,4.137 h -0.029 c -1.673,0.109 -2.92,1.039 -3.464,2.306 l -0.169,-0.03 c 0.198,-0.524 0.327,-1.039 0.337,-1.455 0.069,-7.601 -8.759,-3.583 -12.005,-0.95 -1.356,1.108 -2.632,2.445 -3.78,3.929 l -0.218,-0.168 c -0.05,-1.049 -0.356,-3.197 -0.663,-4.454 l -0.119,-0.148 c 0.317,-0.248 0.644,-0.475 0.95,-0.683 l 0.327,-0.327 h 0.327 c 0.505,-1.247 3.296,-3.474 4.8,-5.275 -0.237,-0.534 -0.583,-0.861 -0.703,-1.455 -0.109,-0.505 -3.523,-4.266 -3.761,-4.652 -0.762,-1.227 0.614,-5.611 -1.643,-3.691 0.386,-4.068 4.949,-7.829 6.701,-4.147 0.089,0.178 0.168,0.376 0.237,0.594 v 0.01 c -3.058,-0.931 -5.77,1.396 -4.325,4.523 0.762,1.672 2.722,3.583 6.453,5.354 l 0.475,-0.04 c 0.01,0.069 0.01,0.129 0.02,0.198 h 0.159 c -0.04,0.852 0.436,1.792 0.99,1.979 l 0.057,0.308 z" style="fill:#fff"/><path id="path97" d="m 181.937,104.222 h 0.029 c -0.208,3.603 -2.286,6.947 -3.365,10.194 -0.831,2.504 -1.474,4.958 -2.286,7.274 -0.633,-0.96 -2.632,-2.475 -3.949,-2.128 l -0.079,-0.06 c 2.593,-3.395 4.711,-7.769 4.76,-10.729 0.436,-0.554 0.94,-1.435 1.257,-2.276 l 0.169,0.03 c 0.544,-1.266 1.791,-2.196 3.464,-2.305 z" style="fill:#e6e631"/><path id="path99" d="m 162.855,108.022 c 1.148,-1.484 2.424,-2.821 3.78,-3.929 3.247,-2.632 12.075,-6.651 12.005,0.95 -0.01,0.416 -0.139,0.93 -0.337,1.455 -0.316,0.841 -0.821,1.722 -1.257,2.276 0.01,-0.327 -0.01,-0.633 -0.059,-0.92 -2.979,-18.161 -21.2,11.184 -13.856,12.866 -0.416,-0.02 -0.683,0.168 -0.821,0.495 l 0.653,0.326 c 1.207,5.464 5.73,2.653 9.323,-2.039 l 0.079,0.06 c 1.316,-0.347 3.315,1.167 3.949,2.128 -0.722,2.058 -1.573,4.008 -2.791,5.79 l -0.495,0.04 c -0.03,-0.466 -0.099,-0.961 -0.188,-1.495 -1.296,-0.247 -3.107,-0.445 -4.434,-0.029 l -0.614,-0.05 c -1.92,0.91 -2.623,4.642 -4.345,6.097 -1.138,0.96 -4.533,2.623 -4.761,4.335 0,0.01 0,0.01 0,0.01 -0.01,0.089 -0.01,0.168 -0.01,0.247 v 0.079 c -0.079,0.861 0.277,3.751 0.198,4.998 -0.287,0.148 -0.574,0.297 -0.861,0.445 -0.455,0.229 -0.911,0.466 -1.366,0.703 l -0.277,-0.534 c -0.148,-0.515 -0.801,-2.939 -1.019,-4.583 -0.416,-0.267 -0.871,-0.108 -1.267,-0.396 0.178,-1.812 -0.237,-3.741 -0.059,-5.542 -0.386,-0.218 -0.871,-0.158 -1.267,-0.396 -0.861,-3.306 1.237,-9.827 -0.188,-10.856 l -0.307,-0.04 c 0.168,-1.276 0.386,-2.523 0.683,-3.741 l 0.614,0.148 c 0.515,1.178 0.455,2.049 2.128,1.959 1.178,-3.543 7.037,-12.114 4.8,-13.836 l -0.346,-0.386 c 0.524,-0.475 1.118,-0.96 1.712,-1.405 l 0.119,0.148 c 0.307,1.257 0.613,3.405 0.663,4.454 l 0.219,0.168 z" style="fill:#fff"/><path id="path101" d="m 177.463,171.66 c -0.525,0.039 -1.663,-0.169 -2.227,-0.277 0.257,0.723 0.822,1.188 1.029,1.93 -1.079,-0.307 -1.415,-0.376 -2.256,-0.921 0,0.09 0.307,1.416 0.327,1.416 -4.573,0.723 -10.115,-3.494 -10.244,-8.195 -0.02,-0.089 -0.792,-0.01 -0.93,-0.228 0,-0.06 0,-0.118 0.01,-0.188 l 1.277,0.059 c 2.346,-1.93 4.85,-3.701 7.423,-5.116 l 0.831,-0.495 c 1.821,2.712 3.84,5.364 4.929,8.383 -0.624,0 -1.356,0.01 -1.821,0.03 0.811,1.118 0.91,2.513 1.652,3.602 z" style="fill:#e6e631"/><path id="path103" d="m 177.047,108.774 c -0.049,2.959 -2.167,7.334 -4.76,10.729 -3.593,4.691 -8.116,7.502 -9.323,2.039 l -0.653,-0.326 c 0.139,-0.327 0.406,-0.515 0.821,-0.495 -7.344,-1.683 10.877,-31.027 13.856,-12.866 0.049,0.286 0.069,0.592 0.059,0.919 z" style="fill:#e6e631"/><path id="path105" d="m 164.864,132.19 c -1.445,1.702 -4.087,3.028 -6.176,4.187 0.228,-1.712 3.623,-3.375 4.761,-4.335 1.722,-1.455 2.425,-5.187 4.345,-6.097 l 0.614,0.05 c 1.326,-0.416 3.137,-0.218 4.434,0.029 0.089,0.534 0.158,1.029 0.188,1.495 0.148,1.89 -0.139,3.354 -0.93,4.642 -1.168,0.97 -2.326,1.949 -3.503,2.899 -1.257,-0.762 -1.97,-1.86 -2.237,-3.048 l -0.426,0.089 c -0.287,0.168 -0.624,0.228 -0.99,0.158 l -0.08,-0.069 z" style="fill:#e6e631"/><path id="path107" d="m 164.468,151.282 -0.04,-0.772 c 0.525,-0.02 0.861,-0.268 1.178,-0.436 l 0.901,-0.574 c 0.327,0.139 0.653,0.119 0.911,-0.079 l 1.128,-0.02 c 0.297,2.157 0.812,4.295 1.88,6.443 0.653,1.306 1.445,2.563 2.276,3.8 l -0.831,0.495 c -2.573,1.415 -5.077,3.187 -7.423,5.116 l -1.277,-0.059 c 0.02,-0.772 0.178,-1.623 0.267,-2.396 -0.534,-0.06 -1.257,0.129 -1.761,-0.05 0.515,-1.326 0.178,-3.077 0.772,-4.403 -1.02,-0.258 -1.712,-1.158 -2.167,-2.376 -0.446,-1.197 -0.663,-2.701 -0.743,-4.235 l 0.129,-0.01 c 1.207,-0.147 3.345,-0.355 4.8,-0.444 z" style="fill:#fff"/><path id="path109" d="m 164.765,88.149 c -1.445,-3.127 1.267,-5.454 4.325,-4.523 0.752,0.218 1.524,0.633 2.256,1.287 0,0 0,0 0,0.01 -0.089,2.87 0.148,6.106 0.347,8.541 l -0.475,0.04 c -3.732,-1.773 -5.691,-3.683 -6.453,-5.355 z" style="fill:#e6e631"/><path id="path111" d="m 164.428,150.51 0.04,0.772 c -1.455,0.089 -3.592,0.297 -4.8,0.445 l -0.129,0.01 c -0.119,-2.326 0.089,-4.711 0.297,-6.116 l -0.168,-0.308 c 1.405,-0.752 2.831,-1.484 4.305,-2.167 1.356,-0.634 2.603,-1.336 3.781,-2.108 0.376,2.821 0.406,5.602 0.792,8.363 l -1.128,0.02 c -0.257,0.198 -0.584,0.218 -0.911,0.079 l -0.901,0.574 c -0.316,0.168 -0.653,0.416 -1.178,0.436 z" style="fill:#e6e631"/><path id="path113" d="m 162.152,87.169 c 2.257,-1.92 0.881,2.464 1.643,3.691 0.238,0.386 3.652,4.147 3.761,4.652 0.119,0.594 0.465,0.92 0.703,1.455 -1.504,1.801 -4.295,4.028 -4.8,5.275 h -0.327 c -2.346,-2.563 -4.553,-11.352 -1.692,-14.39 0.267,-0.287 0.504,-0.515 0.712,-0.683 z" style="fill:#e6e631"/><path id="path115" d="m 166.17,136.99 c -2.267,1.742 -4.652,3.365 -7.294,4.721 0.08,-1.247 -0.277,-4.137 -0.198,-4.998 v -0.079 c 0,-0.079 0,-0.158 0.01,-0.247 0,0 0,0 0,-0.01 2.088,-1.158 4.731,-2.484 6.176,-4.187 l 0.079,0.069 c 0.366,0.069 0.703,0.01 0.99,-0.158 l 0.426,-0.089 c 0.267,1.188 0.979,2.286 2.237,3.048 -0.803,0.654 -1.604,1.297 -2.426,1.93 z" style="fill:#e6e631"/><path id="path117" d="m 160.489,105.043 c 2.237,1.722 -3.622,10.293 -4.8,13.836 -1.673,0.089 -1.613,-0.782 -2.128,-1.959 l -0.614,-0.148 c 1,-4.177 2.93,-8.135 7.086,-12.015 0.03,-0.03 0.069,-0.069 0.109,-0.099 l 0.347,0.385 z" style="fill:#e6e631"/><path id="path119" d="m 159.45,156.161 c 0.752,2.197 0.366,4.898 0.732,7.552 -2.761,-0.416 -5.552,-1.544 -8.234,-2.218 -0.049,0.05 -0.109,0.109 -0.168,0.159 0.178,1.059 -0.336,2.424 -0.059,3.553 -2.761,-1.653 -11.698,-9.649 -3.296,-10.372 -0.228,-0.644 -0.257,-2.336 -0.307,-2.444 l -0.158,-0.198 c 0.604,-0.485 1.257,-0.931 1.969,-1.336 1,-0.564 1.97,-1.129 2.93,-1.692 l 0.049,0.089 c -1.593,4.889 3.039,2.554 5.325,4.899 0.584,0.603 0.96,1.276 1.217,2.008 z" style="fill:#299c3a"/><path id="path121" d="m 154.709,142.414 -0.228,-0.02 c 0,-0.109 -0.386,-0.96 -0.445,-1.861 -0.218,-0.188 -0.881,0.139 -0.98,0.079 -0.168,-0.752 0.129,-1.623 -0.01,-2.385 -0.327,-0.228 -0.94,0.168 -1.267,-0.05 -0.178,-0.891 0.089,-1.86 -0.059,-2.751 -0.129,-0.168 -0.772,0.029 -0.93,-0.228 0.9,-5.314 0.88,-10.154 1.475,-14.688 l 0.307,0.04 c 1.425,1.029 -0.673,7.551 0.188,10.856 0.396,0.238 0.881,0.179 1.267,0.396 -0.178,1.801 0.237,3.73 0.059,5.542 0.396,0.287 0.851,0.129 1.267,0.396 0.218,1.644 0.871,4.068 1.019,4.583 l 0.277,0.534 c -0.554,0.277 -1.108,0.555 -1.653,0.841 l -0.109,-0.217 c -0.168,-0.236 -0.227,-0.671 -0.178,-1.067 z" style="fill:#e6e631"/><path id="path123" d="m 140.973,150.737 -0.139,-0.129 c 0.643,-0.692 1.277,-1.623 1.831,-2.315 -0.06,0 -0.366,-0.05 -0.356,-0.158 -1.593,0.148 -3.612,0.168 -5.077,0.455 l -0.653,-0.158 c -1.375,-2.267 -8.115,-6.987 -0.861,-7.621 0.247,-3.117 1.167,-5.948 1.544,-9.026 2.534,0.822 4.869,2.584 6.245,4.78 1.247,-1.246 2.711,-1.336 4.137,-2.127 0.633,2.899 -0.535,5.7 -0.485,8.689 1.316,-0.387 3.009,0.297 4.236,0.049 0.198,0.445 0.178,1 0.376,1.436 1.039,0 1.01,0.198 0.98,0.198 l 0.02,0.039 c -4.117,2.147 -7.977,4.295 -11.777,6.849 -0.388,-0.258 -0.348,-0.614 -0.021,-0.961 z" style="fill:#299c3a"/></g><g id="g125"><path id="path127" d="m 163.132,102.242 c -2.346,-2.563 -4.553,-11.352 -1.692,-14.39 0.267,-0.287 0.505,-0.515 0.712,-0.683 2.257,-1.92 0.881,2.464 1.643,3.691 0.238,0.386 3.652,4.147 3.761,4.652 0.119,0.594 0.465,0.92 0.703,1.455 -1.504,1.801 -4.295,4.028 -4.8,5.275" style="fill:none;stroke:#000;stroke-width:.56999999;stroke-linecap:round;stroke-linejoin:round"/><path id="path129" d="m 163.953,99.104 c 0,-1.098 0,-2.197 0,-3.295" style="fill:none;stroke:#000;stroke-width:.56999999;stroke-linecap:round;stroke-linejoin:round"/><path id="path131" d="m 162.142,87.229 c 0,-0.02 0,-0.04 0.01,-0.06 0.386,-4.068 4.949,-7.829 6.701,-4.147 0.089,0.178 0.168,0.376 0.237,0.594" style="fill:none;stroke:#000;stroke-width:.56999999;stroke-linecap:round;stroke-linejoin:round"/><path id="path133" d="m 163.458,87.07 c 0.564,0.198 0.03,0.485 0.564,0.198" style="fill:none;stroke:#000;stroke-width:.56999999;stroke-linecap:round;stroke-linejoin:round"/><path id="path135" d="m 171.346,84.913 c -0.732,-0.653 -1.504,-1.069 -2.256,-1.287 -3.058,-0.931 -5.77,1.396 -4.325,4.523 0.762,1.672 2.722,3.583 6.453,5.354" style="fill:none;stroke:#000;stroke-width:.56999999;stroke-linecap:round;stroke-linejoin:round"/><path id="path137" d="m 171.544,85.09 c -0.069,-0.059 -0.129,-0.119 -0.198,-0.168" style="fill:none;stroke:#000;stroke-width:.56999999;stroke-linecap:round;stroke-linejoin:round"/><path id="path139" d="m 171.544,82.122 c -0.109,0.851 -0.178,1.801 -0.198,2.791 0,0 0,0 0,0.01 -0.089,2.87 0.148,6.106 0.347,8.541 0.01,0.069 0.01,0.129 0.02,0.198" style="fill:none;stroke:#000;stroke-width:.56999999;stroke-linecap:round;stroke-linejoin:round"/><path id="path141" d="m 168.575,83.438 c 0.129,-0.08 0.218,-0.228 0.277,-0.416 0.692,-2.088 -1.871,-9.788 9.62,-3.553 1.692,0.91 6.403,-3.059 7.917,-0.871 1.287,1.871 -0.445,4.711 -1.97,5.453 4.454,1.9 12.114,5.305 12.361,9.947" style="fill:none;stroke:#000;stroke-width:.56999999;stroke-linecap:round;stroke-linejoin:round"/><path id="path143" d="m 172.534,93.661 c 8.472,-6.007 16.706,-0.564 24.188,0.653 0.02,0 0.039,0.01 0.059,0.01" style="fill:none;stroke:#000;stroke-width:.56999999;stroke-linecap:round;stroke-linejoin:round"/><path id="path145" d="m 172.861,83.764 c 1.425,-0.257 3.078,-0.119 4.642,0.06 1.801,0.218 3.494,0.495 4.602,0.277" style="fill:none;stroke:#000;stroke-width:.56999999;stroke-linecap:round;stroke-linejoin:round"/><path id="path147" d="m 177.482,81.953 c 0.119,0.188 0.178,1.148 0.02,1.871 0,0.04 -0.01,0.079 -0.02,0.109" style="fill:none;stroke:#000;stroke-width:.56999999;stroke-linecap:round;stroke-linejoin:round"/><path id="path149" d="m 178.473,81.458 c 1.563,-0.396 3.493,-0.584 5.274,-0.495" style="fill:none;stroke:#000;stroke-width:.56999999;stroke-linecap:round;stroke-linejoin:round"/><path id="path151" d="m 178.799,80.469 c 0.723,0 1.436,0 2.147,0" style="fill:none;stroke:#000;stroke-width:.56999999;stroke-linecap:round;stroke-linejoin:round"/><path id="path153" d="m 173.197,89.208 c 6.591,-2.019 19.002,-0.544 22.427,4.622" style="fill:none;stroke:#000;stroke-width:.56999999;stroke-linecap:round;stroke-linejoin:round"/><path id="path155" d="m 175.671,91.355 c 3.305,-1.792 9.531,-1.851 12.698,0.168" style="fill:none;stroke:#000;stroke-width:.56999999;stroke-linecap:round;stroke-linejoin:round"/><path id="path157" d="m 168.249,90.86 c 0.742,0.03 2.989,0.356 1.811,-0.168" style="fill:none;stroke:#000;stroke-width:.56999999;stroke-linecap:round;stroke-linejoin:round"/><path id="path159" d="M 170.228,91.682 C 170,91.613 169.802,91.652 169.733,91.85" style="fill:none;stroke:#000;stroke-width:.56999999;stroke-linecap:round;stroke-linejoin:round"/><path id="path161" d="m 170.228,91.682 c 0.049,0.416 0.297,-0.109 0.327,-0.159" style="fill:none;stroke:#000;stroke-width:.56999999;stroke-linecap:round;stroke-linejoin:round"/><path id="path163" d="m 161.479,94.325 c -0.119,1.355 0.139,2.939 0.336,3.137" style="fill:none;stroke:#000;stroke-width:.56999999;stroke-linecap:round;stroke-linejoin:round"/><path id="path165" d="m 161.152,89.703 c -0.247,0.614 -0.237,1.91 -0.168,1.979" style="fill:none;stroke:#000;stroke-width:.56999999;stroke-linecap:round;stroke-linejoin:round"/><path id="path167" d="m 164.785,85.744 c -0.089,1.346 -0.099,1.396 -0.02,2.405 0.01,0.069 0.01,0.148 0.02,0.237" style="fill:none;stroke:#000;stroke-width:.56999999;stroke-linecap:round;stroke-linejoin:round"/><path id="path169" d="m 166.922,94.325 c 0.683,-0.159 1.416,-0.099 2.088,-0.139 -0.267,0.534 -0.584,1.059 -0.93,1.455" style="fill:none;stroke:#000;stroke-width:.56999999;stroke-linecap:round;stroke-linejoin:round"/><path id="path171" d="m 171.871,93.661 c -0.04,0.852 0.436,1.792 0.99,1.979" style="fill:none;stroke:#000;stroke-width:.56999999;stroke-linecap:round;stroke-linejoin:round"/><path id="path173" d="m 169.733,98.452 c 0.812,-1.316 1.939,-2.128 3.187,-2.504 3.147,-0.95 7.027,0.841 8.363,4.137 0.584,1.425 0.762,2.801 0.683,4.137 -0.208,3.603 -2.286,6.947 -3.365,10.194 -0.831,2.504 -1.474,4.958 -2.286,7.274 -0.722,2.058 -1.573,4.008 -2.791,5.79" style="fill:none;stroke:#000;stroke-width:.56999999;stroke-linecap:round;stroke-linejoin:round"/><path id="path175" d="m 168.249,126.49 c -0.119,-0.06 -0.218,-0.109 -0.336,-0.169" style="fill:none;stroke:#000;stroke-width:.56999999;stroke-linecap:round;stroke-linejoin:round"/><path id="path177" d="m 168.249,126.49 c -1.554,1.326 -2.335,3.543 -1.89,5.522 0.267,1.188 0.979,2.286 2.237,3.048 0.099,0.069 0.208,0.129 0.316,0.188 1.455,-1.01 2.504,-1.989 3.187,-3.088 0.792,-1.287 1.079,-2.752 0.93,-4.642 -0.03,-0.466 -0.099,-0.961 -0.188,-1.495 -1.296,-0.247 -3.107,-0.445 -4.434,-0.029" style="fill:none;stroke:#000;stroke-width:.56999999;stroke-linecap:round;stroke-linejoin:round"/><path id="path179" d="m 172.534,125.5 c 0.821,-1.168 1.475,-2.534 1.811,-3.791" style="fill:none;stroke:#000;stroke-width:.56999999;stroke-linecap:round;stroke-linejoin:round"/><path id="path181" d="m 163.132,120.72 c -0.416,-0.02 -0.683,0.168 -0.821,0.495" style="fill:none;stroke:#000;stroke-width:.56999999;stroke-linecap:round;stroke-linejoin:round"/><path id="path183" d="m 163.132,120.72 c -7.344,-1.683 10.877,-31.027 13.856,-12.866 0.049,0.287 0.069,0.594 0.059,0.92 -0.049,2.959 -2.167,7.334 -4.76,10.729 -3.593,4.691 -8.116,7.502 -9.323,2.039" style="fill:none;stroke:#000;stroke-width:.56999999;stroke-linecap:round;stroke-linejoin:round"/><path id="path185" d="m 157.688,118.077 c 0.95,-3.385 2.801,-7.017 5.167,-10.055 1.148,-1.484 2.424,-2.821 3.78,-3.929 3.247,-2.632 12.075,-6.651 12.005,0.95 -0.01,0.416 -0.139,0.93 -0.337,1.455 -0.316,0.841 -0.821,1.722 -1.257,2.276 -0.02,0.03 -0.04,0.05 -0.059,0.069" style="fill:none;stroke:#000;stroke-width:.56999999;stroke-linecap:round;stroke-linejoin:round"/><path id="path187" d="m 158.184,119.562 c 0.316,-0.584 1.801,-2.563 2.801,-3.632" style="fill:none;stroke:#000;stroke-width:.56999999;stroke-linecap:round;stroke-linejoin:round"/><path id="path189" d="m 158.015,122.699 c 0.832,-0.832 1.683,-1.673 2.474,-2.474" style="fill:none;stroke:#000;stroke-width:.56999999;stroke-linecap:round;stroke-linejoin:round"/><path id="path191" d="m 158.015,125.174 c 0.821,-0.772 2.949,-2.94 2.969,-2.969" style="fill:none;stroke:#000;stroke-width:.56999999;stroke-linecap:round;stroke-linejoin:round"/><path id="path193" d="m 158.184,127.975 c 1.336,-1.268 2.939,-2.573 4.454,-3.632" style="fill:none;stroke:#000;stroke-width:.56999999;stroke-linecap:round;stroke-linejoin:round"/><path id="path195" d="m 158.678,130.448 c 1.604,-1.643 3.642,-3.167 5.275,-4.948" style="fill:none;stroke:#000;stroke-width:.56999999;stroke-linecap:round;stroke-linejoin:round"/><path id="path197" d="m 158.678,133.418 c 1.732,-1.989 4.058,-3.543 5.938,-5.275" style="fill:none;stroke:#000;stroke-width:.56999999;stroke-linecap:round;stroke-linejoin:round"/><path id="path199" d="m 159.995,134.081 c 1.613,-1.356 3.533,-2.92 4.948,-4.454" style="fill:none;stroke:#000;stroke-width:.56999999;stroke-linecap:round;stroke-linejoin:round"/><path id="path201" d="m 158.688,136.377 c 2.088,-1.158 4.731,-2.484 6.176,-4.187 0.03,-0.029 0.06,-0.06 0.079,-0.089" style="fill:none;stroke:#000;stroke-width:.56999999;stroke-linecap:round;stroke-linejoin:round"/><line id="line203" x1="158.678" x2="158.688" y1="136.387" y2="136.387" style="fill:none;stroke:#000;stroke-width:.56999999;stroke-linecap:round;stroke-linejoin:round"/><path id="path205" d="m 158.876,141.711 c 0.08,-1.247 -0.277,-4.137 -0.198,-4.998" style="fill:none;stroke:#000;stroke-width:.56999999;stroke-linecap:round;stroke-linejoin:round"/><path id="path207" d="m 164.943,132.26 c 0.366,0.069 0.703,0.01 0.99,-0.158" style="fill:none;stroke:#000;stroke-width:.56999999;stroke-linecap:round;stroke-linejoin:round"/><path id="path209" d="m 154.393,142.325 c 0,0.108 0,0.218 0,0.326" style="fill:none;stroke:#000;stroke-width:.56999999;stroke-linecap:round;stroke-linejoin:round"/><path id="path211" d="m 154.393,142.325 c 0.06,0.079 0.089,0.099 0.089,0.069 0,-0.109 -0.386,-0.96 -0.445,-1.861 -0.218,-0.188 -0.881,0.139 -0.98,0.079 -0.168,-0.752 0.129,-1.623 -0.01,-2.385 -0.327,-0.228 -0.94,0.168 -1.267,-0.05 -0.178,-0.891 0.089,-1.86 -0.059,-2.751 -0.129,-0.168 -0.772,0.029 -0.93,-0.228 0.9,-5.314 0.88,-10.154 1.475,-14.688 0.168,-1.276 0.386,-2.523 0.683,-3.741 1,-4.177 2.93,-8.135 7.086,-12.015 0.03,-0.03 0.069,-0.069 0.109,-0.099 0.524,-0.475 1.118,-0.96 1.712,-1.405 0.317,-0.248 0.644,-0.475 0.95,-0.683" style="fill:none;stroke:#000;stroke-width:.56999999;stroke-linecap:round;stroke-linejoin:round"/><path id="path213" d="m 161.974,103.4 c 0.307,1.257 0.613,3.405 0.663,4.454" style="fill:none;stroke:#000;stroke-width:.56999999;stroke-linecap:round;stroke-linejoin:round"/><path id="path215" d="m 153.562,116.919 c 0.515,1.178 0.455,2.049 2.128,1.959 1.178,-3.543 7.037,-12.114 4.8,-13.836" style="fill:none;stroke:#000;stroke-width:.56999999;stroke-linecap:round;stroke-linejoin:round"/><path id="path217" d="m 152.572,120.552 c 1.425,1.029 -0.673,7.551 0.188,10.856 0.396,0.238 0.881,0.179 1.267,0.396 -0.178,1.801 0.237,3.73 0.059,5.542 0.396,0.287 0.851,0.129 1.267,0.396 0.218,1.644 0.871,4.068 1.019,4.583" style="fill:none;stroke:#000;stroke-width:.56999999;stroke-linecap:round;stroke-linejoin:round"/><path id="path219" d="m 154.888,123.689 c -0.168,2.455 -0.327,4.988 -0.139,7.393 0.614,0.158 1.475,0.326 2.088,0.386 -0.049,0.732 0.119,1.812 0.158,2.593 -1.514,0.822 -1.079,0.782 -1.099,2.96 0.891,1.059 2.029,4.285 2.118,5.136 0.01,0.08 0.01,0.129 0,0.169" style="fill:none;stroke:#000;stroke-width:.56999999;stroke-linecap:round;stroke-linejoin:round"/><path id="path221" d="m 156.867,120.225 c -0.604,4.404 -1.425,7.868 0.653,11.708" style="fill:none;stroke:#000;stroke-width:.56999999;stroke-linecap:round;stroke-linejoin:round"/><path id="path223" d="m 161.479,135.565 c -0.445,0.802 -2.207,4.374 -0.99,3.79" style="fill:none;stroke:#000;stroke-width:.56999999;stroke-linecap:round;stroke-linejoin:round"/><path id="path225" d="m 163.627,134.407 c 0.524,0.9 1.702,2.068 2.543,2.583 0.04,0.021 0.069,0.04 0.099,0.06" style="fill:none;stroke:#000;stroke-width:.56999999;stroke-linecap:round;stroke-linejoin:round"/><path id="path227" d="m 133.936,157.002 c 0.06,-0.049 0.119,-0.099 0.178,-0.148 2.296,-1.93 4.572,-3.622 6.878,-5.156 3.8,-2.554 7.66,-4.701 11.777,-6.849 0.732,-0.386 1.475,-0.762 2.227,-1.148 0.544,-0.286 1.099,-0.563 1.653,-0.841 0.455,-0.237 0.911,-0.475 1.366,-0.703 0.287,-0.148 0.574,-0.297 0.861,-0.445 2.643,-1.355 5.028,-2.979 7.294,-4.721 0.821,-0.633 1.623,-1.276 2.425,-1.93 1.178,-0.95 2.335,-1.93 3.503,-2.899 3.583,-2.96 7.205,-5.83 11.48,-7.858 0.416,-0.198 0.831,-0.376 1.257,-0.535 1.86,-0.732 3.84,-1.237 5.76,-1.762 2.87,-0.792 5.622,-1.672 7.71,-3.563 2.099,-1.89 2.475,-4.364 4.028,-6.215 0.02,-0.02 0.029,-0.04 0.05,-0.059 0.494,-0.574 1.108,-1.059 1.762,-1.524 1.365,-0.96 2.89,-1.801 3.889,-3.088 1.06,-1.385 1.772,-3.404 2.029,-4.988 0.04,-0.168 0.06,-0.336 0.079,-0.495" style="fill:none;stroke:#000;stroke-width:.67000002;stroke-linecap:round;stroke-linejoin:round"/><path id="path229" d="m 134.104,156.844 c 0,0 0,0.01 0.01,0.01 1.029,1.653 2.593,3.068 4.107,4.603" style="fill:none;stroke:#000;stroke-width:.67000002;stroke-linecap:round;stroke-linejoin:round"/><path id="path231" d="m 202.928,119.018 c 1.524,-1.534 4.256,-4.503 6.186,-7.621 0.01,-0.02 0.03,-0.05 0.04,-0.079 0.02,-0.03 0.039,-0.06 0.059,-0.099 0.861,-1.416 1.544,-2.86 1.861,-4.207 0.386,-1.633 0.237,-3.127 -0.763,-4.275" style="fill:none;stroke:#000;stroke-width:.67000002;stroke-linecap:round;stroke-linejoin:round"/><path id="path233" d="m 202.928,119.018 c -0.02,0 -0.05,0.01 -0.069,0.01 -0.119,0.049 -0.119,0.06 0.01,0.049 0.019,-0.02 0.039,-0.04 0.059,-0.059 z" style="fill:none;stroke:#000;stroke-width:.67000002;stroke-linecap:round;stroke-linejoin:round"/><path id="path235" d="m 138.221,161.624 c 0.03,-0.02 0.049,-0.029 0.079,-0.05 3.909,-2.523 5.998,-6.521 9.66,-9.382 0.604,-0.485 1.257,-0.931 1.969,-1.336 1,-0.564 1.97,-1.129 2.93,-1.692 2.296,-1.326 4.523,-2.623 6.809,-3.851 1.405,-0.752 2.831,-1.484 4.305,-2.167 1.356,-0.634 2.603,-1.336 3.781,-2.108 3.949,-2.553 7.096,-5.779 10.719,-9.104 4.176,-3.86 8.185,-4.444 13.004,-6.503 0.218,-0.099 0.445,-0.198 0.674,-0.297 0.692,-0.316 1.365,-0.624 2.009,-0.93 4.543,-2.128 8.115,-3.731 13.678,-0.653 0.465,0.257 1.078,0.832 1.762,1.504 1.514,1.504 3.345,3.514 4.414,3.583 0.039,0 0.069,0 0.099,0 3.028,-0.139 1.326,-2.297 -0.139,-3.87 -0.386,-0.416 -0.762,-0.802 -1.029,-1.088 -0.653,-0.713 -1.475,-1.445 -2.405,-2.108 -2.296,-1.653 -5.205,-2.9 -7.61,-2.553" style="fill:none;stroke:#000;stroke-width:.67000002;stroke-linecap:round;stroke-linejoin:round"/><path id="path237" d="m 137.231,148.59 c 1.465,-0.287 3.484,-0.307 5.077,-0.455 -0.01,0.108 0.297,0.158 0.356,0.158 -0.554,0.692 -1.188,1.623 -1.831,2.315 -0.099,0.109 -0.198,0.208 -0.297,0.297" style="fill:none;stroke:#000;stroke-width:.67000002;stroke-linecap:round;stroke-linejoin:round"/><path id="path239" d="m 136.578,148.432 c -1.375,-2.267 -8.115,-6.987 -0.861,-7.621 0.247,-3.117 1.167,-5.948 1.544,-9.026 2.534,0.822 4.869,2.584 6.245,4.78 1.247,-1.246 2.711,-1.336 4.137,-2.127 0.633,2.899 -0.535,5.7 -0.485,8.689 1.316,-0.387 3.009,0.297 4.236,0.049 0.198,0.445 0.178,1 0.376,1.436 1.039,0 1.01,0.198 0.98,0.198 l -0.01,-0.011" style="fill:none;stroke:#000;stroke-width:.67000002;stroke-linecap:round;stroke-linejoin:round"/><path id="path241" d="m 138.221,136.555 c 0.802,3.188 4.602,4.543 5.384,7.512 0.248,0.892 0.208,1.931 -0.267,3.207" style="fill:none;stroke:#000;stroke-width:.67000002;stroke-linecap:round;stroke-linejoin:round"/><path id="path243" d="m 143.338,143.978 c 0.089,0.03 0.178,0.069 0.267,0.089 1.257,0.436 2.652,0.574 4.018,0.406" style="fill:none;stroke:#000;stroke-width:.67000002;stroke-linecap:round;stroke-linejoin:round"/><path id="path245" d="m 145.317,145.462 c 0.316,0.406 1.811,2.673 1.158,1.316" style="fill:none;stroke:#000;stroke-width:.67000002;stroke-linecap:round;stroke-linejoin:round"/><path id="path247" d="m 143.338,138.04 c -0.208,0.683 -0.228,2.969 -0.327,2.801" style="fill:none;stroke:#000;stroke-width:.67000002;stroke-linecap:round;stroke-linejoin:round"/><path id="path249" d="m 145.149,137.545 c 0.01,0.06 0.099,3.266 0,4.285" style="fill:none;stroke:#000;stroke-width:.67000002;stroke-linecap:round;stroke-linejoin:round"/><path id="path251" d="m 137.073,142.493 c 1.049,0.089 3.791,0.168 3.958,0.158" style="fill:none;stroke:#000;stroke-width:.67000002;stroke-linecap:round;stroke-linejoin:round"/><path id="path253" d="m 138.063,143.81 c 0.91,0.069 3.107,0.485 3.127,0.495" style="fill:none;stroke:#000;stroke-width:.67000002;stroke-linecap:round;stroke-linejoin:round"/><path id="path255" d="m 148.118,152.391 c 0.049,0.108 0.079,1.801 0.307,2.444 -8.402,0.723 0.535,8.719 3.296,10.372 -0.277,-1.129 0.237,-2.494 0.059,-3.553 0.06,-0.05 0.119,-0.109 0.168,-0.159 2.682,0.674 5.473,1.802 8.234,2.218 -0.366,-2.653 0.02,-5.354 -0.732,-7.552 -0.257,-0.732 -0.633,-1.405 -1.217,-2.009 -2.286,-2.346 -6.918,-0.011 -5.325,-4.899" style="fill:none;stroke:#000;stroke-width:.67000002;stroke-linecap:round;stroke-linejoin:round"/><path id="path257" d="m 149.444,156.676 c -0.049,0.039 -0.129,0.129 -0.168,0.168" style="fill:none;stroke:#000;stroke-width:.67000002;stroke-linecap:round;stroke-linejoin:round"/><path id="path259" d="m 149.444,156.666 c 0.02,-0.01 0.02,-0.021 0.03,-0.03 0.01,-0.01 0.01,-0.01 0.01,-0.01" style="fill:none;stroke:#000;stroke-width:.67000002;stroke-linecap:round;stroke-linejoin:round"/><path id="path261" d="m 149.444,156.676 c -0.01,0.356 -0.129,2.83 -0.168,3.79" style="fill:none;stroke:#000;stroke-width:.67000002;stroke-linecap:round;stroke-linejoin:round"/><path id="path263" d="m 149.444,156.636 c 0,0 0,0.021 0,0.03" style="fill:none;stroke:#000;stroke-width:.67000002;stroke-linecap:round;stroke-linejoin:round"/><line id="line265" x1="149.444" x2="149.444" y1="156.666" y2="156.676" style="fill:none;stroke:#000;stroke-width:.67000002;stroke-linecap:round;stroke-linejoin:round"/><path id="path267" d="m 152.908,156.349 c 0.04,0.881 0.139,3.227 0.158,4.117" style="fill:none;stroke:#000;stroke-width:.67000002;stroke-linecap:round;stroke-linejoin:round"/><path id="path269" d="m 153.403,156.013 c -0.188,-0.555 -0.456,-0.723 -0.337,-1.426 1.029,2.821 3.504,5.275 5.117,7.364" style="fill:none;stroke:#000;stroke-width:.67000002;stroke-linecap:round;stroke-linejoin:round"/><path id="path271" d="m 157.194,160.14 c 0.188,-1.108 0.188,-2.188 0,-3.296" style="fill:none;stroke:#000;stroke-width:.67000002;stroke-linecap:round;stroke-linejoin:round"/><path id="path273" d="m 149.444,154.37 c 2.831,-0.644 6.007,-0.485 7.581,1.484" style="fill:none;stroke:#000;stroke-width:.67000002;stroke-linecap:round;stroke-linejoin:round"/><path id="path275" d="m 184.737,123.521 c -5.711,-0.93 -5.761,-7.393 -2.02,-10.768 6.463,-5.83 6.443,3.276 12.055,2.048 -0.336,2.811 -2.246,5.028 -4.256,6.908" style="fill:none;stroke:#000;stroke-width:.67000002;stroke-linecap:round;stroke-linejoin:round"/><path id="path277" d="m 183.253,113.129 c -0.238,1.306 -0.109,3.523 0.336,4.948" style="fill:none;stroke:#000;stroke-width:.67000002;stroke-linecap:round;stroke-linejoin:round"/><path id="path279" d="m 184.737,118.404 c 0.188,0.92 0.287,1.128 0.168,-0.327" style="fill:none;stroke:#000;stroke-width:.67000002;stroke-linecap:round;stroke-linejoin:round"/><path id="path281" d="m 187.706,112.96 c 0.129,-0.237 0,0.99 0,0.99" style="fill:none;stroke:#000;stroke-width:.67000002;stroke-linecap:round;stroke-linejoin:round"/><path id="path283" d="m 186.39,114.613 c -0.01,0.426 0.069,2.474 0.168,3.464" style="fill:none;stroke:#000;stroke-width:.67000002;stroke-linecap:round;stroke-linejoin:round"/><path id="path285" d="m 185.727,119.73 c 1.069,-0.099 2.059,-0.148 3.138,-0.168" style="fill:none;stroke:#000;stroke-width:.67000002;stroke-linecap:round;stroke-linejoin:round"/><path id="path287" d="m 185.4,119.73 c 0.257,0.802 0.455,2.019 0.494,2.969" style="fill:none;stroke:#000;stroke-width:.67000002;stroke-linecap:round;stroke-linejoin:round"/><path id="path289" d="m 182.758,120.225 c 0,0.356 0.376,1 0.831,1.316" style="fill:none;stroke:#000;stroke-width:.67000002;stroke-linecap:round;stroke-linejoin:round"/><path id="path291" d="m 189.359,118.74 c 1.315,-0.693 2.147,-1.851 2.306,-3.306" style="fill:none;stroke:#000;stroke-width:.67000002;stroke-linecap:round;stroke-linejoin:round"/><path id="path293" d="m 200.572,109.665 c 0.188,0.624 0.782,1.396 1.247,1.682 0.089,0.069 0.168,0.109 0.237,0.129" style="fill:none;stroke:#000;stroke-width:.67000002;stroke-linecap:round;stroke-linejoin:round"/><path id="path295" d="m 201.898,108.349 c 0.455,0.96 1,1.603 1.494,1.494 0.109,-0.02 0.218,-0.079 0.317,-0.178" style="fill:none;stroke:#000;stroke-width:.67000002;stroke-linecap:round;stroke-linejoin:round"/><path id="path297" d="m 200.414,109.665 c -0.337,1.039 -1.197,2.247 -0.831,4.077 -0.653,-4.582 -10.738,-0.277 -9.699,-8.501 1.128,0.04 2.267,-0.772 3.404,-0.722 0.168,-1.663 1.049,-3.108 1.02,-4.85 1.168,0.752 2.643,0.564 3.731,1.099 -0.268,-0.931 0,-2 -0.238,-2.949 5.761,0.089 7.858,6.967 4.098,10.53 -0.06,0.059 -0.108,0.109 -0.168,0.158" style="fill:none;stroke:#000;stroke-width:.67000002;stroke-linecap:round;stroke-linejoin:round"/><path id="path299" d="m 203.215,106.696 c 0.158,0 0.653,0 0.989,0 0.198,0 0.347,0 0.347,0" style="fill:none;stroke:#000;stroke-width:.67000002;stroke-linecap:round;stroke-linejoin:round"/><path id="path301" d="m 192.001,108.675 c 1.692,-0.079 6.522,0.178 6.434,0.168" style="fill:none;stroke:#000;stroke-width:.67000002;stroke-linecap:round;stroke-linejoin:round"/><path id="path303" d="m 191.17,107.517 c 1.415,-0.01 3.068,0.119 4.296,0.336" style="fill:none;stroke:#000;stroke-width:.67000002;stroke-linecap:round;stroke-linejoin:round"/><path id="path305" d="m 193.645,106.369 c 0.079,-0.594 0.297,-2.267 0.336,-2.474 0,-0.01 0,-0.02 0,-0.02" style="fill:none;stroke:#000;stroke-width:.67000002;stroke-linecap:round;stroke-linejoin:round"/><path id="path307" d="m 194.476,100.757 c 0,-0.059 0,-0.109 0,-0.168" style="fill:none;stroke:#000;stroke-width:.67000002;stroke-linecap:round;stroke-linejoin:round"/><path id="path309" d="m 194.476,100.757 c 0.426,-0.01 0.337,0.703 0,1.812" style="fill:none;stroke:#000;stroke-width:.67000002;stroke-linecap:round;stroke-linejoin:round"/><path id="path311" d="m 195.466,104.103 c 0,-0.02 0,-0.029 0,-0.049" style="fill:none;stroke:#000;stroke-width:.67000002;stroke-linecap:round;stroke-linejoin:round"/><path id="path313" d="m 195.624,102.905 c 0.247,-1.089 -0.079,0.821 -0.158,1.197 0,0.04 -0.011,0.06 -0.011,0.06" style="fill:none;stroke:#000;stroke-width:.67000002;stroke-linecap:round;stroke-linejoin:round"/><path id="path315" d="m 196.781,104.053 c -0.108,-0.356 -0.089,1.425 -0.168,1.979" style="fill:none;stroke:#000;stroke-width:.67000002;stroke-linecap:round;stroke-linejoin:round"/><path id="path317" d="m 198.435,105.706 c 0.465,0 3.404,0 3.464,0" style="fill:none;stroke:#000;stroke-width:.67000002;stroke-linecap:round;stroke-linejoin:round"/><path id="path319" d="m 200.74,106.033 c -0.356,0.93 -0.653,2.335 -0.663,2.969" style="fill:none;stroke:#000;stroke-width:.67000002;stroke-linecap:round;stroke-linejoin:round"/><path id="path321" d="m 198.593,100.589 c -0.445,1.049 -0.97,3.078 -1.148,4.622" style="fill:none;stroke:#000;stroke-width:.67000002;stroke-linecap:round;stroke-linejoin:round"/><path id="path323" d="m 199.424,101.747 c 1.475,0.594 2.702,1.653 3.128,2.643" style="fill:none;stroke:#000;stroke-width:.67000002;stroke-linecap:round;stroke-linejoin:round"/><path id="path325" d="m 191.507,125.5 c 0.702,0.515 1.375,1.563 1.791,2.316 0.06,0.099 0.109,0.207 0.158,0.297 -8.462,3.682 1.445,10.55 4.444,13.539 0.287,-0.772 0.86,-1.366 1.099,-2.079 2.088,2.218 5.205,2.475 7.977,3.068 -0.237,-1.297 0.258,-2.82 -0.119,-4.098 0.445,-0.089 0.96,0.327 1.445,0.129 -0.495,-1.88 -0.613,-3.988 -0.336,-5.978 0,-0.03 0.01,-0.05 0.01,-0.079 -0.574,0.02 -1.139,-0.03 -1.683,-0.129 -4.859,-0.871 -8.393,-5.879 -12.619,-4.79 0.04,-0.119 0.436,-0.99 0.466,-1.207" style="fill:none;stroke:#000;stroke-width:.67000002;stroke-linecap:round;stroke-linejoin:round"/><path id="path327" d="m 196.287,128.638 c -0.04,2.494 -1.257,7.521 0.989,8.075" style="fill:none;stroke:#000;stroke-width:.67000002;stroke-linecap:round;stroke-linejoin:round"/><path id="path329" d="m 198.959,132.022 c -0.01,-0.01 -0.02,-0.04 -0.029,-0.089" style="fill:none;stroke:#000;stroke-width:.67000002;stroke-linecap:round;stroke-linejoin:round"/><path id="path331" d="m 198.435,129.291 c -0.089,-0.674 0.524,2.523 0.524,2.731 0,0.01 0,0.01 0,0.01" style="fill:none;stroke:#000;stroke-width:.67000002;stroke-linecap:round;stroke-linejoin:round"/><path id="path333" d="m 200.74,131.27 c -0.069,0.268 -0.128,0.634 -0.188,1.04 -0.179,1.355 -0.258,3.216 -0.139,3.909" style="fill:none;stroke:#000;stroke-width:.67000002;stroke-linecap:round;stroke-linejoin:round"/><path id="path335" d="m 199.583,137.05 c 0.039,-0.039 -0.139,1.276 0,1.812" style="fill:none;stroke:#000;stroke-width:.67000002;stroke-linecap:round;stroke-linejoin:round"/><path id="path337" d="m 201.898,132.428 c 0,0.03 0.01,0.05 0.01,0.079 0.287,2.554 1.484,5.622 2.959,7.018" style="fill:none;stroke:#000;stroke-width:.67000002;stroke-linecap:round;stroke-linejoin:round"/><path id="path339" d="m 202.552,132.428 c 0.979,0.842 2.296,1.316 3.493,1.316 0.04,0 0.09,0 0.139,0" style="fill:none;stroke:#000;stroke-width:.67000002;stroke-linecap:round;stroke-linejoin:round"/><path id="path341" d="m 194.14,124.679 c 2.068,0.663 3.919,1.583 5.74,2.682 0.059,0.03 0.108,0.069 0.168,0.1 0,-0.01 0,-0.03 0,-0.04 0.118,-0.732 0.089,-1.643 0,-2.385 -0.06,-0.05 -0.109,-0.109 -0.168,-0.159 -1.802,-0.168 -4.117,-0.346 -5.572,-0.366" style="fill:none;stroke:#000;stroke-width:.67000002;stroke-linecap:round;stroke-linejoin:round"/><path id="path343" d="m 199.919,124.51 c 0.04,0 0.079,0 0.119,0 1.237,-0.059 2.325,0.02 3.315,0.218 3.038,0.624 5.146,2.425 7.759,5.354 -0.01,0.01 -0.029,0.01 -0.039,0.021 -1.297,0.613 -2.158,1.811 -3.107,2.593 -0.1,0.079 -0.198,0.158 -0.298,0.228" style="fill:none;stroke:#000;stroke-width:.67000002;stroke-linecap:round;stroke-linejoin:round"/><path id="path345" d="m 200.909,128.143 c 2.286,0.148 5.492,0.94 7.581,2.475" style="fill:none;stroke:#000;stroke-width:.67000002;stroke-linecap:round;stroke-linejoin:round"/><path id="path347" d="m 201.403,127.479 c -0.069,0.188 1.841,-1.415 3.128,-1.979" style="fill:none;stroke:#000;stroke-width:.67000002;stroke-linecap:round;stroke-linejoin:round"/><path id="path349" d="m 200.909,127.975 c -0.218,-0.208 -0.535,-0.416 -0.861,-0.555 -0.05,-0.02 -0.109,-0.05 -0.168,-0.06 -0.04,-0.02 -0.09,-0.039 -0.129,-0.049" style="fill:none;stroke:#000;stroke-width:.67000002;stroke-linecap:round;stroke-linejoin:round"/><path id="path351" d="m 209.647,131.606 c -0.228,0.02 0.545,-0.634 1.515,-1.336 1.059,-0.762 2.365,-1.584 2.851,-1.633 0.039,-0.01 0.069,-0.01 0.099,0 -0.188,0.762 -2.83,4.85 -2.949,5.611 1.207,1.168 2.86,2.326 4.395,3.117 0.158,-0.939 0.841,-1.683 1.02,-2.563 0.891,1.999 2.444,3.612 4.127,5.156 0.494,-2.752 1.603,-5.533 1.147,-8.641 1.683,0.089 1.208,-0.515 2.831,-1.365 -1.218,-1.307 -2.307,-2.999 -3.474,-4.088 1.306,0.228 2.603,0.139 3.81,-0.228 1.821,-0.544 3.444,-1.712 4.572,-3.395 -0.87,-0.446 -1.533,-1.574 -2.444,-2.009 4.642,-6.641 -16.142,-3.88 -15.271,1 0.02,0.099 0.049,0.208 0.079,0.307" style="fill:none;stroke:#000;stroke-width:.67000002;stroke-linecap:round;stroke-linejoin:round"/><path id="path353" d="m 214.27,124.51 c 0.05,0.02 0.109,0.03 0.158,0.04 0.94,0.188 2.673,0.04 3.771,0.099 0.228,-0.515 -0.148,-1.099 -0.109,-1.593 1.247,-0.772 1.762,-1.94 1.762,-3.335 0,-0.416 -0.05,-0.861 -0.139,-1.316" style="fill:none;stroke:#000;stroke-width:.67000002;stroke-linecap:round;stroke-linejoin:round"/><path id="path355" d="m 214.765,122.363 c 1.633,-0.475 2.851,-1.93 2.969,-3.623" style="fill:none;stroke:#000;stroke-width:.67000002;stroke-linecap:round;stroke-linejoin:round"/><path id="path357" d="m 221.029,119.562 c 0,0.01 0,0.01 0,0.02 0.099,2.257 3.019,4.889 3.662,4.889 0.089,0 0.129,-0.04 0.129,-0.128" style="fill:none;stroke:#000;stroke-width:.67000002;stroke-linecap:round;stroke-linejoin:round"/><path id="path359" d="m 222.346,120.552 c 1.108,0.336 2.959,0.406 3.138,0.326" style="fill:none;stroke:#000;stroke-width:.67000002;stroke-linecap:round;stroke-linejoin:round"/><line id="line361" x1="226.968" x2="226.968" y1="123.362" y2="123.353" style="fill:none;stroke:#000;stroke-width:.67000002;stroke-linecap:round;stroke-linejoin:round"/><path id="path363" d="m 224.661,122.363 c 0,0.03 2.207,1 2.307,1 0.01,0 0.01,0 0.01,0" style="fill:none;stroke:#000;stroke-width:.67000002;stroke-linecap:round;stroke-linejoin:round"/><path id="path365" d="m 216.744,126.658 c 2.128,0.228 3.275,-0.723 3.127,-2.969" style="fill:none;stroke:#000;stroke-width:.67000002;stroke-linecap:round;stroke-linejoin:round"/><path id="path367" d="m 219.377,126.49 c 0.613,0.821 1.523,1.484 2.474,1.811" style="fill:none;stroke:#000;stroke-width:.67000002;stroke-linecap:round;stroke-linejoin:round"/><path id="path369" d="m 214.923,129.459 c -0.386,0.732 -0.871,2.92 -0.821,3.296" style="fill:none;stroke:#000;stroke-width:.67000002;stroke-linecap:round;stroke-linejoin:round"/><path id="path371" d="m 215.091,128.964 c -0.128,0.979 1.307,0.545 2.801,0" style="fill:none;stroke:#000;stroke-width:.67000002;stroke-linecap:round;stroke-linejoin:round"/><path id="path373" d="m 217.397,130.597 c 0,0 0,0.01 0,0.021 -0.01,0.267 -0.03,3.019 0,2.474" style="fill:none;stroke:#000;stroke-width:.67000002;stroke-linecap:round;stroke-linejoin:round"/><path id="path375" d="m 217.397,129.785 c 1.683,0.703 4.117,0.732 4.79,0.337" style="fill:none;stroke:#000;stroke-width:.67000002;stroke-linecap:round;stroke-linejoin:round"/><path id="path377" d="m 219.545,131.765 c -0.158,1.108 -0.376,3.276 -0.495,4.79" style="fill:none;stroke:#000;stroke-width:.67000002;stroke-linecap:round;stroke-linejoin:round"/><path id="path379" d="m 210.806,97.125 c -0.099,0.02 -0.158,-0.02 -0.158,-0.089 -0.01,-0.02 -0.01,-0.04 -0.01,-0.069" style="fill:none;stroke:#000;stroke-width:.67000002;stroke-linecap:round;stroke-linejoin:round"/><path id="path381" d="m 210.806,97.125 c -0.06,-0.02 -0.118,-0.05 -0.158,-0.089 -0.05,-0.03 -0.079,-0.069 -0.109,-0.109 -0.029,-0.04 -0.049,-0.079 -0.068,-0.128" style="fill:none;stroke:#000;stroke-width:.67000002;stroke-linecap:round;stroke-linejoin:round"/><path id="path383" d="m 210.638,96.304 c -0.119,-0.059 -0.208,-0.109 -0.327,-0.168" style="fill:none;stroke:#000;stroke-width:.67000002;stroke-linecap:round;stroke-linejoin:round"/><path id="path385" d="m 210.638,96.304 c -0.366,-0.01 -0.476,-0.069 -0.327,-0.168" style="fill:none;stroke:#000;stroke-width:.67000002;stroke-linecap:round;stroke-linejoin:round"/><path id="path387" d="m 209.975,96.63 c -0.406,-0.089 -0.94,-0.267 -1.484,-0.534 -1.692,-0.802 -3.484,-2.494 -1.771,-5.384 1.633,0.98 3.127,1.831 4.275,3.266 0.524,-1.049 2.009,-1.811 2.622,-2.89 1.465,1.375 3.227,3.008 3.475,5.196 0.475,0.079 1.167,-0.148 1.603,0.049 0.347,0.257 -0.356,0.95 -0.118,1.267 0.563,0.109 1.178,-0.03 1.731,0.049 -0.208,3.404 -2.82,4.068 -5.552,3.454 -1.604,-1.722 -4.325,-2.079 -4.217,-4.177 0,-0.079 0.011,-0.158 0.021,-0.237 0.02,-0.129 0.039,-0.248 0.079,-0.386" style="fill:none;stroke:#000;stroke-width:.67000002;stroke-linecap:round;stroke-linejoin:round"/><path id="path389" d="m 208.163,93.83 c -0.208,0.723 -0.168,1.524 0,1.653" style="fill:none;stroke:#000;stroke-width:.67000002;stroke-linecap:round;stroke-linejoin:round"/><path id="path391" d="m 212.785,93.998 c -0.01,0.089 0.01,1.316 0.029,1.781 0.971,0.317 2.326,0.564 3.435,0.356" style="fill:none;stroke:#000;stroke-width:.67000002;stroke-linecap:round;stroke-linejoin:round"/><path id="path393" d="m 211.133,96.967 c 0.158,-0.029 1.078,0.089 1.435,0.05 -0.089,0.524 -0.208,1.108 -0.445,1.593" style="fill:none;stroke:#000;stroke-width:.67000002;stroke-linecap:round;stroke-linejoin:round"/><path id="path395" d="m 214.765,98.452 c 1.039,0.109 2.909,0.386 3.464,0.495" style="fill:none;stroke:#000;stroke-width:.67000002;stroke-linecap:round;stroke-linejoin:round"/><path id="path397" d="m 208.49,97.293 c 0.059,0 0.108,0 0.168,0" style="fill:none;stroke:#000;stroke-width:.67000002;stroke-linecap:round;stroke-linejoin:round"/><path id="path399" d="m 208.658,96.304 c 0.089,0.148 0.366,1.722 0,2.9 -0.842,-0.188 -1.86,-0.336 -2.939,-0.564 0.02,0.01 -0.337,0.96 -0.158,0.93 0.574,0.06 1.494,0.178 2.078,0.396 -1.415,1.336 -1.326,2.514 -1.435,4.563 0.049,-0.04 1.494,-0.178 1.603,-0.168 0.624,-1.396 1.465,-1.95 2.257,-1.791 0.099,0.01 0.188,0.04 0.277,0.089 0.633,0.248 1.207,0.96 1.583,2.049 0.366,-0.267 0.198,-1.198 0.218,-1.574 1.079,0.336 1.673,0.574 2.771,0.445 -0.198,-0.782 -0.287,-1.633 -0.515,-2.464 -0.416,0.198 -1.623,0.416 -2.078,0.445 -0.139,-0.376 -0.148,-1.534 -0.366,-1.791" style="fill:none;stroke:#000;stroke-width:.67000002;stroke-linecap:round;stroke-linejoin:round"/><path id="path401" d="m 214.458,106.033 c -0.228,0.96 -0.742,4.681 -0.713,6.077 -0.792,-0.089 -3.751,-0.802 -4.533,-0.891 -0.218,-0.02 -0.267,0 -0.059,0.099" style="fill:none;stroke:#000;stroke-width:.67000002;stroke-linecap:round;stroke-linejoin:round"/><path id="path403" d="m 214.458,106.033 c 2.325,-1.188 4.414,-3.029 7.699,-3.098 0.366,0.356 1.347,1.573 1.485,1.801 -0.198,0.752 -0.426,1.91 -0.822,2.593 -1.346,0.663 -0.366,0.495 -1.157,1.495 0.01,-0.109 -0.842,0.158 -0.931,0.218 0.198,0.633 0.268,1.435 0.436,2.118 -2.099,0.317 -3.78,0.317 -6.047,0.624 -0.188,-0.664 -0.505,-5.078 -0.663,-5.751 z" style="fill:none;stroke:#000;stroke-width:.67000002;stroke-linecap:round;stroke-linejoin:round"/><path id="path405" d="m 211.133,107.022 c 0.604,-0.03 1.167,-0.148 1.702,-0.317 0.563,-0.168 1.099,-0.406 1.623,-0.673" style="fill:none;stroke:#000;stroke-width:.67000002;stroke-linecap:round;stroke-linejoin:round"/><path id="path407" d="m 212.825,105.627 c 0,0 0.01,0.436 0.01,1.079 0.029,1.435 0.02,3.929 -0.218,4.938" style="fill:none;stroke:#000;stroke-width:.67000002;stroke-linecap:round;stroke-linejoin:round"/><path id="path409" d="m 215.754,107.19 c 0.04,0.653 -0.276,2.316 -0.663,3.296" style="fill:none;stroke:#000;stroke-width:.67000002;stroke-linecap:round;stroke-linejoin:round"/><path id="path411" d="m 217.565,108.349 c 2.009,-0.416 3.414,-1.742 3.632,-3.464" style="fill:none;stroke:#000;stroke-width:.67000002;stroke-linecap:round;stroke-linejoin:round"/><path id="path413" d="m 216.249,116.761 c 0.644,-1.307 1.712,-2.059 2.157,-3.444 -0.049,-0.04 1.029,0.148 0.95,0.178 -0.207,1.326 -1.009,2.534 -2.117,3.592" style="fill:none;stroke:#000;stroke-width:.67000002;stroke-linecap:round;stroke-linejoin:round"/><path id="path415" d="m 159.836,145.621 c -0.208,1.405 -0.416,3.79 -0.297,6.116 0.08,1.534 0.297,3.038 0.743,4.235 0.455,1.218 1.148,2.118 2.167,2.376 -0.594,1.326 -0.257,3.077 -0.772,4.403 0.504,0.179 1.227,-0.01 1.761,0.05 -0.089,0.772 -0.247,1.623 -0.267,2.396 -0.01,0.069 -0.01,0.128 -0.01,0.188 0.139,0.218 0.911,0.139 0.93,0.228 0.129,4.701 5.671,8.918 10.244,8.195 -0.02,0 -0.327,-1.326 -0.327,-1.416 0.841,0.545 1.178,0.614 2.256,0.921 -0.208,-0.742 -0.772,-1.207 -1.029,-1.93 0.564,0.108 1.702,0.316 2.227,0.277 -0.742,-1.089 -0.841,-2.484 -1.653,-3.603 0.465,-0.021 1.197,-0.03 1.821,-0.03 -1.088,-3.019 -3.107,-5.671 -4.929,-8.383 -0.831,-1.237 -1.623,-2.494 -2.276,-3.8 -1.069,-2.148 -1.583,-4.286 -1.88,-6.443 -0.386,-2.762 -0.416,-5.542 -0.792,-8.363 0,-0.01 0,-0.02 0,-0.029" style="fill:none;stroke:#000;stroke-width:.56999999;stroke-linecap:round;stroke-linejoin:round"/><path id="path417" d="m 162.311,145.294 c -0.336,0.564 -0.465,2.375 -0.168,3.296" style="fill:none;stroke:#000;stroke-width:.56999999;stroke-linecap:round;stroke-linejoin:round"/><path id="path419" d="m 163.627,147.769 c -0.099,0.841 0,1.771 0.029,2.612 0.297,0.1 0.554,0.139 0.772,0.129 0.525,-0.02 0.861,-0.268 1.178,-0.436" style="fill:none;stroke:#000;stroke-width:.56999999;stroke-linecap:round;stroke-linejoin:round"/><path id="path421" d="m 164.448,144.968 c 0,0.702 0.257,3.067 0.495,4.117" style="fill:none;stroke:#000;stroke-width:.56999999;stroke-linecap:round;stroke-linejoin:round"/><path id="path423" d="m 159.668,151.728 c 1.208,-0.148 3.345,-0.356 4.8,-0.445 0.574,-0.04 1.04,-0.06 1.307,-0.05" style="fill:none;stroke:#000;stroke-width:.56999999;stroke-linecap:round;stroke-linejoin:round"/><path id="path425" d="m 166.101,149.253 c 0.128,0.108 0.267,0.198 0.406,0.247 0.327,0.139 0.653,0.119 0.911,-0.079" style="fill:none;stroke:#000;stroke-width:.56999999;stroke-linecap:round;stroke-linejoin:round"/><path id="path427" d="m 160.984,152.054 c 0,1.652 0,3.306 0,4.948" style="fill:none;stroke:#000;stroke-width:.56999999;stroke-linecap:round;stroke-linejoin:round"/><path id="path429" d="m 164.448,165.256 c 2.346,-1.93 4.85,-3.701 7.423,-5.116" style="fill:none;stroke:#000;stroke-width:.56999999;stroke-linecap:round;stroke-linejoin:round"/><path id="path431" d="m 141.358,150.411 c -0.148,0.108 -0.277,0.218 -0.386,0.326 -0.327,0.347 -0.366,0.703 0.02,0.96 0.01,0.01 0.03,0.02 0.04,0.03" style="fill:none;stroke:#000;stroke-width:.67000002;stroke-linecap:round;stroke-linejoin:round"/><path id="path433" d="m 154.719,142.325 c 0,0.029 -0.01,0.06 -0.01,0.089 -0.049,0.396 0.01,0.831 0.178,1.069" style="fill:none;stroke:#000;stroke-width:.56999999;stroke-linecap:round;stroke-linejoin:round"/><path id="path435" d="m 203.047,110.16 c 0.108,-0.02 0.218,-0.02 0.316,-0.01 0.277,0.02 0.515,0.128 0.673,0.336" style="fill:none;stroke:#000;stroke-width:.67000002;stroke-linecap:round;stroke-linejoin:round"/><path id="path437" d="m 201.73,111.476 c -0.069,0.416 0.089,0.653 0.494,0.663" style="fill:none;stroke:#000;stroke-width:.67000002;stroke-linecap:round;stroke-linejoin:round"/><path id="path439" d="m 209.816,111.476 c -0.129,-0.01 -0.505,-0.05 -0.703,-0.079 -0.178,-0.03 -0.237,-0.06 0.04,-0.079" style="fill:none;stroke:#000;stroke-width:.67000002;stroke-linecap:round;stroke-linejoin:round"/><path id="path441" d="m 208.49,96.304 c 0,-0.069 0,-0.138 0,-0.208 0,-0.317 0,-0.634 0,-0.95" style="fill:none;stroke:#000;stroke-width:.67000002;stroke-linecap:round;stroke-linejoin:round"/><path id="path443" d="m 208.49,98.61 c 0,-0.445 0,-0.881 0,-1.316 0,-0.059 0,-0.109 0,-0.168 0,-0.277 0,-0.544 0,-0.822" style="fill:none;stroke:#000;stroke-width:.67000002;stroke-linecap:round;stroke-linejoin:round"/><path id="path445" d="m 208.658,98.283 c 0,-0.386 0,-0.712 0,-0.99 0,-0.515 0,-0.841 0,-0.99 0,-0.059 0,-0.089 0,-0.089" style="fill:none;stroke:#000;stroke-width:.67000002;stroke-linecap:round;stroke-linejoin:round"/><path id="path447" d="m 172.366,119.562 c 1.316,-0.347 3.315,1.167 3.949,2.128 0,0.01 0.01,0.01 0.01,0.02" style="fill:none;stroke:#000;stroke-width:.56999999;stroke-linecap:round;stroke-linejoin:round"/><path id="path449" d="m 178.473,106.527 c 0.544,-1.267 1.791,-2.197 3.464,-2.306" style="fill:none;stroke:#000;stroke-width:.56999999;stroke-linecap:round;stroke-linejoin:round"/><path id="path451" d="m 202.968,124.837 c 0.138,-0.04 0.267,-0.079 0.386,-0.109 1.86,-0.445 2.741,0.307 4.127,0.94 0.851,0.387 2.633,2.88 1.999,-0.494" style="fill:none;stroke:#000;stroke-width:.67000002;stroke-linecap:round;stroke-linejoin:round"/><path id="path453" d="m 158.678,136.634 c 0,-0.079 0,-0.158 0.01,-0.247 0,0 0,0 0,-0.01 0.228,-1.712 3.623,-3.375 4.761,-4.335 1.722,-1.455 2.425,-5.187 4.345,-6.097 0.128,-0.06 0.267,-0.108 0.406,-0.139" style="fill:none;stroke:#000;stroke-width:.56999999;stroke-linecap:round;stroke-linejoin:round"/></g></g><path id="path455" d="m 172.809,101.239 c -1.042,0.585 -1.948,0.99 -3.093,1.374" style="fill:none;stroke:#000;stroke-width:.56999999;stroke-linecap:round;stroke-linejoin:round"/><path id="path457" d="m 167.585,123.892 c -0.237,2.206 -3.918,8.021 -6.155,8.817 -4.443,1.581 -4.996,-3.463 -5.226,-6.962 -0.344,-5.218 1.804,-10.992 4.577,-15.216" style="fill:none;stroke:#000;stroke-width:.56999999;stroke-linecap:round;stroke-linejoin:round"/><path id="path459" d="m 160.658,110.407 c 0.498,-0.741 1.197,-1.489 1.855,-1.979" style="fill:none;stroke:#000;stroke-width:.56999999;stroke-linecap:round;stroke-linejoin:round"/></g><g id="g461"><ellipse id="ellipse463" cx="167.464" cy="86.962" d="m 167.771,86.961998 c 0,0.188881 -0.13744,0.342 -0.307,0.342 -0.16955,0 -0.307,-0.153119 -0.307,-0.342 0,-0.188881 0.13745,-0.342 0.307,-0.342 0.16956,0 0.307,0.153119 0.307,0.342 z" rx=".307" ry=".342" style="stroke:#000;stroke-width:.56999999;stroke-linecap:round;stroke-linejoin:round"/></g><path id="path465" d="m 166.521,89.241 c 2.198,1.863 4.538,-0.165 3.194,-2.846" style="fill:none;stroke:#000;stroke-width:.56999999"/></g><path id="path467" d="m 168.875,106.5 c -0.986,1.401 -1.604,3.141 -1.853,4.853 0.86,0.276 1.247,-0.201 1.728,-0.478" style="fill:none;stroke:#000;stroke-width:.56999999;stroke-linecap:round;stroke-linejoin:round"/><path id="path469" d="m 171.125,108.125 c -0.546,1.388 -3.606,7.448 -0.125,4.75" style="fill:none;stroke:#000;stroke-width:.56999999;stroke-linecap:round;stroke-linejoin:round"/><path id="path471" d="m 167,112.625 c -1.413,1.3 -2.513,2.956 -2.481,4.975 1.044,0.368 1.145,-0.262 1.856,-0.85" style="fill:none;stroke:#000;stroke-width:.56999999;stroke-linecap:round;stroke-linejoin:round"/><path id="path473" d="m 170.625,114.125 c -1.36,1.373 -2.468,2.975 -2.603,4.881 0.949,0.594 1.141,0.004 1.853,-0.381" style="fill:none;stroke:#000;stroke-width:.56999999;stroke-linecap:round;stroke-linejoin:round"/><path id="path475" d="m 166.75,118.125 c -1.229,1.27 -1.96,2.813 -1.63,4.356 0.815,-0.117 1.552,-0.461 2.255,-0.981" style="fill:none;stroke:#000;stroke-width:.56999999;stroke-linecap:round;stroke-linejoin:round"/><path id="path477" d="m 173.875,107.75 c -0.917,1.791 -1.623,4.02 -1.613,6.106 0.097,0.005 0.552,-0.033 0.615,0.034 0.257,-0.35 0.462,-0.815 0.748,-1.14" style="fill:none;stroke:#000;stroke-width:.56999999;stroke-linecap:round;stroke-linejoin:round"/><path id="path479" d="m 172,115.5 c -0.318,0.554 -0.587,1.657 -0.731,2.356 0.571,0.073 0.853,-0.203 1.356,-0.356" style="fill:none;stroke:#000;stroke-width:.56999999;stroke-linecap:round;stroke-linejoin:round"/><path id="path481" d="m 166.125,108.25 c -0.847,1.6 -1.672,3.194 -2.106,4.983 0.465,-0.115 0.684,-0.704 0.731,-0.733" style="fill:none;stroke:#000;stroke-width:.56999999;stroke-linecap:round;stroke-linejoin:round"/><path id="path483" d="m 162.75,152.375 c -0.139,3.166 0.452,8.212 2.25,11" style="fill:none;stroke:#000;stroke-width:.56999999;stroke-linecap:round;stroke-linejoin:round"/><path id="path485" d="m 163.875,152.25 c 0.253,3.261 0.235,7.302 2.25,10" style="fill:none;stroke:#000;stroke-width:.56999999;stroke-linecap:round;stroke-linejoin:round"/><path id="path487" d="m 165.125,152.5 c -0.093,-0.01 -0.135,0.031 -0.125,0.125" style="fill:none;stroke:#000;stroke-width:.56999999;stroke-linecap:round;stroke-linejoin:round"/><path id="path489" d="m 165.125,152.5 c -0.254,3.022 0.648,5.686 2,8.375" style="fill:none;stroke:#000;stroke-width:.56999999;stroke-linecap:round;stroke-linejoin:round"/><path id="path491" d="m 167,152 c 0.861,2.734 2.257,4.918 2.5,7.875" style="fill:none;stroke:#000;stroke-width:.56999999;stroke-linecap:round;stroke-linejoin:round"/><path id="path493" d="m 166.25,152.875 c 0.283,2.196 0.929,4.254 1.5,6.375" style="fill:none;stroke:#000;stroke-width:.56999999;stroke-linecap:round;stroke-linejoin:round"/><path id="path495" d="m 170.5,161.583 c 1.165,2.11 2.789,4.499 4.25,6.084" style="fill:none;stroke:#000;stroke-width:.56999999;stroke-linecap:round;stroke-linejoin:round"/><path id="path497" d="m 168.833,162.75 c 1.033,2.671 3.396,7.492 5.583,8.167" style="fill:none;stroke:#000;stroke-width:.56999999;stroke-linecap:round;stroke-linejoin:round"/><path id="path499" d="m 167.417,163.917 c 0.778,2.239 3.265,9.112 5.5,8.416" style="fill:none;stroke:#000;stroke-width:.56999999;stroke-linecap:round;stroke-linejoin:round"/><path id="path501" d="m 165.833,165.25 c 0.804,3.165 2.146,4.891 4.167,7.083" style="fill:none;stroke:#000;stroke-width:.56999999;stroke-linecap:round;stroke-linejoin:round"/></g></svg>